<svg width="48" height="12" viewBox="0 0 48 12" fill="none" xmlns="http://www.w3.org/2000/svg">
<path fill-rule="evenodd" clip-rule="evenodd" d="M48 0.00187278C48 0.00187278 44.2537 7.96017e-05 43 0.0100797C41.7463 0.0200798 39.2064 0.051264 37.5774 0.606561C35.8178 1.20663 34.6528 2.25584 33.4808 3.4906C32.6369 4.3787 30.9794 6.27355 30.1723 7.18842C29.5117 7.93851 28.2187 9.42115 27.5127 10.1385C26.6239 11.0409 25.5253 12.0001 23.9995 12.0001C22.4736 12.0001 21.3756 11.0409 20.4873 10.1394C19.7813 9.42254 18.4883 7.93898 17.8272 7.18935C17.0211 6.27447 15.3636 4.37963 14.5192 3.49152C13.3451 2.25676 12.1822 1.20756 10.4231 0.607487C8.79364 0.0535747 6.91964 0.0267002 5.24678 0.010083C3.49734 -0.0069958 1.74893 0.00280001 2.44434e-10 0.00280017" fill="#FAFBFC" fill-opacity="0.7"/>
</svg>
